<?xml version="1.0" encoding="UTF-8"?>
<svg version="1.1" xmlns="http://www.w3.org/2000/svg" width="38" height="40">
<path d="M0 0 C12.54 0 25.08 0 38 0 C38 13.2 38 26.4 38 40 C25.46 40 12.92 40 0 40 C0 26.8 0 13.6 0 0 Z " fill="#131A2A" transform="translate(0,0)"/>
<path d="M0 0 C3.02208072 1.2354418 4.81911325 3.28393936 6.86328125 5.76171875 C7.19328125 6.09171875 7.52328125 6.42171875 7.86328125 6.76171875 C7.94979736 8.17741998 7.97033029 9.59731375 7.9609375 11.015625 C7.95771484 11.86962891 7.95449219 12.72363281 7.95117188 13.60351562 C7.94279297 14.50134766 7.93441406 15.39917969 7.92578125 16.32421875 C7.92126953 17.22591797 7.91675781 18.12761719 7.91210938 19.05664062 C7.9002835 21.29173189 7.88380345 23.52669312 7.86328125 25.76171875 C7.27015137 25.69098145 6.67702148 25.62024414 6.06591797 25.54736328 C2.03367811 25.0801785 -1.94670614 24.62182859 -6.01171875 24.63671875 C-6.73101563 24.63414063 -7.4503125 24.6315625 -8.19140625 24.62890625 C-10.35424404 24.69485262 -10.35424404 24.69485262 -13.13671875 25.76171875 C-13.34139725 22.55433915 -13.46477196 19.34864698 -13.57421875 16.13671875 C-13.63287109 15.23308594 -13.69152344 14.32945313 -13.75195312 13.3984375 C-13.91962282 6.83536661 -13.91962282 6.83536661 -11.69238281 3.78100586 C-7.8872761 0.32861972 -5.15865274 -1.09183136 0 0 Z " fill="#1B2232" transform="translate(22.13671875,6.23828125)"/>
<path d="M0 0 C3.02208072 1.2354418 4.81911325 3.28393936 6.86328125 5.76171875 C7.19328125 6.09171875 7.52328125 6.42171875 7.86328125 6.76171875 C7.94979736 8.17741998 7.97033029 9.59731375 7.9609375 11.015625 C7.95771484 11.86962891 7.95449219 12.72363281 7.95117188 13.60351562 C7.94279297 14.50134766 7.93441406 15.39917969 7.92578125 16.32421875 C7.92126953 17.22591797 7.91675781 18.12761719 7.91210938 19.05664062 C7.9002835 21.29173189 7.88380345 23.52669312 7.86328125 25.76171875 C7.27015137 25.69098145 6.67702148 25.62024414 6.06591797 25.54736328 C2.03367811 25.0801785 -1.94670614 24.62182859 -6.01171875 24.63671875 C-6.73101563 24.63414063 -7.4503125 24.6315625 -8.19140625 24.62890625 C-10.35424404 24.69485262 -10.35424404 24.69485262 -13.13671875 25.76171875 C-13.34139725 22.55433915 -13.46477196 19.34864698 -13.57421875 16.13671875 C-13.63287109 15.23308594 -13.69152344 14.32945313 -13.75195312 13.3984375 C-13.91962282 6.83536661 -13.91962282 6.83536661 -11.69238281 3.78100586 C-7.8872761 0.32861972 -5.15865274 -1.09183136 0 0 Z M-11.13671875 7.76171875 C-11.61751394 11.11166676 -11.61751394 11.11166676 -11.38671875 14.57421875 C-11.350625 15.73566406 -11.31453125 16.89710937 -11.27734375 18.09375 C-11.2309375 18.97417969 -11.18453125 19.85460937 -11.13671875 20.76171875 C-5.50696383 21.78531055 -0.76647367 21.78531055 4.86328125 20.76171875 C4.97151898 18.51277921 5.0489777 16.262343 5.11328125 14.01171875 C5.1596875 12.75875 5.20609375 11.50578125 5.25390625 10.21484375 C5.14875317 6.7336407 5.14875317 6.7336407 3.09765625 4.34375 C0.76123275 2.68946413 -0.31384591 2.19370533 -3.13671875 2.19921875 C-3.79671875 2.17730469 -4.45671875 2.15539062 -5.13671875 2.1328125 C-8.35196051 3.14385532 -9.41031034 4.9352979 -11.13671875 7.76171875 Z " fill="#E4E5E6" transform="translate(22.13671875,6.23828125)"/>
<path d="M0 0 C0.66 0 1.32 0 2 0 C2.33 4.29 2.66 8.58 3 13 C7.80388386 14.13074409 7.80388386 14.13074409 12 14 C13.34164079 14.2981424 14.67851173 14.62243192 16 15 C15.67 15.99 15.34 16.98 15 18 C14.16855469 17.98839844 13.33710938 17.97679688 12.48046875 17.96484375 C10.85044922 17.95130859 10.85044922 17.95130859 9.1875 17.9375 C8.10855469 17.92589844 7.02960937 17.91429688 5.91796875 17.90234375 C2.93487831 17.86375234 2.93487831 17.86375234 0 19 C0 12.73 0 6.46 0 0 Z " fill="#F6F6F7" transform="translate(9,13)"/>
<path d="M0 0 C0.33 0 0.66 0 1 0 C1 6.27 1 12.54 1 19 C-3 18 -3 18 -5 17 C-5 15.68 -5 14.36 -5 13 C-4.34 13 -3.68 13 -3 13 C-2.95101563 12.22914062 -2.90203125 11.45828125 -2.8515625 10.6640625 C-2.73941406 9.15972656 -2.73941406 9.15972656 -2.625 7.625 C-2.52058594 6.12839844 -2.52058594 6.12839844 -2.4140625 4.6015625 C-2 2 -2 2 0 0 Z " fill="#C0C2C6" transform="translate(29,13)"/>
<path d="M0 0 C1.11375 0.2475 1.11375 0.2475 2.25 0.5 C5.19006578 1.11925696 5.19006578 1.11925696 9 1 C10.34164079 1.2981424 11.67851173 1.62243192 13 2 C12.67 2.99 12.34 3.98 12 5 C10.56260487 5.02712066 9.12506137 5.04645067 7.6875 5.0625 C6.48673828 5.07990234 6.48673828 5.07990234 5.26171875 5.09765625 C3 5 3 5 0 4 C0 2.68 0 1.36 0 0 Z " fill="#D9DADC" transform="translate(12,26)"/>
<path d="M0 0 C1.4540625 0.0309375 1.4540625 0.0309375 2.9375 0.0625 C2.6075 1.3825 2.2775 2.7025 1.9375 4.0625 C-0.92974686 3.48905063 -1.9239515 3.2010485 -4.0625 1.0625 C-3.0625 0.0625 -3.0625 0.0625 0 0 Z " fill="#F0F0F1" transform="translate(22.0625,26.9375)"/>
</svg>
